<svg width="56" height="56" viewBox="0 0 56 56" fill="none" xmlns="http://www.w3.org/2000/svg">
<path d="M31.2409 4.64551C26.9094 4.64551 23.2565 7.76412 23.2565 11.7549C23.2565 13.7707 24.1893 15.5633 25.67 16.8444L26.5967 15.0211C25.7353 14.1241 25.2252 12.9794 25.2252 11.7549C25.2252 8.98004 27.8403 6.61426 31.2408 6.61426C34.6413 6.61426 37.2564 8.98004 37.2564 11.7549C37.2564 13.6583 36.0256 15.3693 34.155 16.2561L33.3366 18.6138C33.5433 18.5638 33.7481 18.5061 33.9505 18.441L34.9522 20.1924C33.8228 20.9868 32.7297 21.9715 31.5579 23.1971L40.4555 42.8181C45.9533 43.0717 51.2578 40.1565 53.9911 35.3796L42.1972 17.3505C39.9915 17.791 38.217 18.3408 36.6328 19.1659L35.7479 17.6189C37.8323 16.3485 39.2253 14.2184 39.2253 11.755C39.2253 7.76423 35.5724 4.64562 31.2409 4.64562V4.64551ZM17.8243 5.29596C17.5334 5.29924 17.2278 5.34737 16.9327 5.4434C16.2578 5.66259 15.6869 6.1143 15.4386 6.60168L15.4071 6.66402L8.30823 16.759C8.07472 17.2459 8.0477 17.9563 8.25825 18.6151C8.47372 19.2885 8.91942 19.8516 9.37409 20.0831L25.0893 28.085C25.5347 28.312 26.2476 28.3481 26.9102 28.1317C27.5604 27.9195 28.1129 27.488 28.3761 26.9841L31.1499 18.862L31.1663 18.8624L31.8583 16.8685C31.8489 16.8694 31.8392 16.8696 31.8299 16.8705L32.3664 15.2993L32.3981 15.2372C32.6464 14.7498 32.6759 14.0209 32.4582 13.3469C32.2406 12.673 31.791 12.105 31.317 11.8636L27.8085 10.0772C27.0928 10.9716 26.8733 12.2502 27.7706 13.4536L28.0014 13.8399L29.1267 14.4305L28.2237 16.2039L28.2077 16.1963L27.3198 17.943L27.3346 17.9501L26.6452 19.3037L15.5338 13.646L17.5688 9.64963L18.0153 8.77245L21.3899 10.4909C21.5601 9.41798 21.9283 8.3857 22.5203 7.38426L18.8241 5.50246C18.5491 5.36246 18.1984 5.29191 17.8243 5.29596ZM41.6602 19.6656L44.2941 24.4585L36.434 28.7777L34.2741 24.8478L33.8 23.9852L41.6602 19.6656ZM40.883 22.3392L36.4738 24.7623L37.2112 26.1043L41.6204 23.6812L40.883 22.3392ZM12.5238 23.8963L10.2411 28.3799L17.8435 32.2509L20.1265 27.7674L12.5238 23.8963ZM45.0315 25.8005L47.6653 30.593L39.8053 34.9122L37.6457 30.9824L37.1716 30.1197L45.0318 25.8003L45.0315 25.8005ZM44.2543 28.4738L39.845 30.8969L40.5826 32.239L44.9918 29.8159L44.2543 28.4738ZM10.9072 30.9282H10.907L2.00977 48.4015L2.67947 50.4611L11.1302 33.8648L12.8844 34.7582L4.43384 51.3542L6.88111 50.5585L8.29948 50.0973L7.53539 47.7396L9.88652 46.9772L9.12133 44.6248L11.4751 43.8594L10.8877 42.0543L15.3907 33.2111L10.9072 30.9282Z" fill="#FFB02B"/>
</svg>
