<svg width="44" height="36" viewBox="0 0 44 36" fill="none" xmlns="http://www.w3.org/2000/svg">
<path d="M42.7017 18.1761H37.1324C36.4629 15.5878 35.1499 13.2599 33.3642 11.3736L36.3313 7.24965C36.7503 6.6677 36.6179 5.85627 36.0359 5.43787C35.4533 5.01884 34.6432 5.15197 34.2241 5.73328L31.4161 9.63617C29.1355 7.9156 26.3768 6.804 23.3693 6.5528V1.29829C23.3693 0.581316 22.788 0 22.071 0C21.354 0 20.7727 0.581316 20.7727 1.29829V6.55232C17.7264 6.80503 14.9317 7.94159 12.6313 9.70202L9.77588 5.73328C9.35621 5.15133 8.54541 5.01694 7.9641 5.43787C7.38215 5.85627 7.24965 6.6677 7.66868 7.24965L10.6952 11.4563C8.94717 13.328 7.65925 15.6249 6.99822 18.1761H1.29829C0.581316 18.1761 0 18.7574 0 19.4744C0 20.1914 0.581316 20.7727 1.29829 20.7727H6.55106C6.51556 21.2004 6.48537 21.6297 6.48537 22.0662V35.1667C6.90852 35.0953 7.34031 35.0495 7.78343 35.0495H36.3459C36.7892 35.0495 37.2211 35.0953 37.6444 35.1668V22.0662C37.6444 21.6297 37.6143 21.2004 37.5789 20.7727H42.7017C43.4187 20.7727 44 20.1914 44 19.4744C44 18.7574 43.4187 18.1761 42.7017 18.1761ZM19.4744 15.5795C17.3266 15.5795 15.5795 17.3266 15.5795 19.4744C15.5795 20.1914 14.9982 20.7727 14.2812 20.7727C13.5643 20.7727 12.9829 20.1914 12.9829 19.4744C12.9829 15.8952 15.8952 12.9829 19.4744 12.9829C20.1914 12.9829 20.7727 13.5642 20.7727 14.2812C20.7727 14.9982 20.1914 15.5795 19.4744 15.5795Z" fill="#FFB02B"/>
</svg>
