<svg width="44" height="44" viewBox="0 0 44 44" fill="none" xmlns="http://www.w3.org/2000/svg">
<path fill-rule="evenodd" clip-rule="evenodd" d="M34.2222 0C35.5188 0 36.7623 0.515079 37.6792 1.43192C38.596 2.34877 39.1111 3.59228 39.1111 4.8889V7.33335H41.5556C42.2039 7.33335 42.8256 7.59089 43.284 8.04931C43.7425 8.50773 44 9.12949 44 9.7778C44 10.4261 43.7425 11.0479 43.284 11.5063C42.8256 11.9647 42.2039 12.2222 41.5556 12.2222V39.1112C42.2039 39.1112 42.8256 39.3687 43.284 39.8271C43.7425 40.2856 44 40.9073 44 41.5556C44 42.2039 43.7425 42.8257 43.284 43.2841C42.8256 43.7425 42.2039 44.0001 41.5556 44.0001H25.6667V33.0001C25.6667 32.0276 25.2804 31.095 24.5927 30.4073C23.9051 29.7197 22.9725 29.3334 22 29.3334C21.0275 29.3334 20.0949 29.7197 19.4073 30.4073C18.7196 31.095 18.3333 32.0276 18.3333 33.0001V44.0001H2.44444C1.79614 44.0001 1.17438 43.7425 0.715961 43.2841C0.257539 42.8257 0 42.2039 0 41.5556C0 40.9073 0.257539 40.2856 0.715961 39.8271C1.17438 39.3687 1.79614 39.1112 2.44444 39.1112V12.2222C1.79614 12.2222 1.17438 11.9647 0.715961 11.5063C0.257539 11.0479 0 10.4261 0 9.7778C0 9.12949 0.257539 8.50773 0.715961 8.04931C1.17438 7.59089 1.79614 7.33335 2.44444 7.33335H4.88889V4.8889C4.88889 3.59228 5.40397 2.34877 6.32081 1.43192C7.23766 0.515079 8.48116 0 9.77778 0H34.2222ZM12.2222 24.4445C11.5739 24.4445 10.9522 24.702 10.4937 25.1605C10.0353 25.6189 9.77778 26.2406 9.77778 26.8889V29.3334C9.77778 29.9817 10.0353 30.6035 10.4937 31.0619C10.9522 31.5203 11.5739 31.7778 12.2222 31.7778C12.8705 31.7778 13.4923 31.5203 13.9507 31.0619C14.4091 30.6035 14.6667 29.9817 14.6667 29.3334V26.8889C14.6667 26.2406 14.4091 25.6189 13.9507 25.1605C13.4923 24.702 12.8705 24.4445 12.2222 24.4445ZM31.7778 24.4445C31.1791 24.4446 30.6012 24.6644 30.1538 25.0622C29.7063 25.4601 29.4205 26.0083 29.3504 26.6029L29.3333 26.8889V29.3334C29.334 29.9564 29.5726 30.5557 30.0003 31.0087C30.428 31.4618 31.0126 31.7344 31.6345 31.7709C32.2565 31.8074 32.8689 31.6051 33.3467 31.2052C33.8245 30.8053 34.1315 30.2381 34.2051 29.6194L34.2222 29.3334V26.8889C34.2222 26.2406 33.9647 25.6189 33.5063 25.1605C33.0478 24.702 32.4261 24.4445 31.7778 24.4445ZM12.2222 14.6667C11.6235 14.6668 11.0456 14.8866 10.5982 15.2844C10.1508 15.6823 9.86494 16.2305 9.79489 16.8251L9.77778 17.1111V19.5556C9.77847 20.1786 10.017 20.7779 10.4447 21.2309C10.8724 21.684 11.457 21.9566 12.079 21.9931C12.7009 22.0296 13.3134 21.8273 13.7911 21.4274C14.2689 21.0275 14.576 20.4603 14.6496 19.8416L14.6667 19.5556V17.1111C14.6667 16.4628 14.4091 15.8411 13.9507 15.3827C13.4923 14.9242 12.8705 14.6667 12.2222 14.6667ZM22 14.6667C21.4013 14.6668 20.8234 14.8866 20.376 15.2844C19.9286 15.6823 19.6427 16.2305 19.5727 16.8251L19.5556 17.1111V19.5556C19.5562 20.1786 19.7948 20.7779 20.2225 21.2309C20.6502 21.684 21.2348 21.9566 21.8567 21.9931C22.4787 22.0296 23.0911 21.8273 23.5689 21.4274C24.0467 21.0275 24.3537 20.4603 24.4273 19.8416L24.4444 19.5556V17.1111C24.4444 16.4628 24.1869 15.8411 23.7285 15.3827C23.2701 14.9242 22.6483 14.6667 22 14.6667ZM31.7778 14.6667C31.1295 14.6667 30.5077 14.9242 30.0493 15.3827C29.5909 15.8411 29.3333 16.4628 29.3333 17.1111V19.5556C29.3333 20.2039 29.5909 20.8257 30.0493 21.2841C30.5077 21.7425 31.1295 22 31.7778 22C32.4261 22 33.0478 21.7425 33.5063 21.2841C33.9647 20.8257 34.2222 20.2039 34.2222 19.5556V17.1111C34.2222 16.4628 33.9647 15.8411 33.5063 15.3827C33.0478 14.9242 32.4261 14.6667 31.7778 14.6667ZM34.2222 4.8889H9.77778V7.33335H34.2222V4.8889Z" fill="#FFB02B"/>
</svg>
