<svg width="56" height="43" viewBox="0 0 56 43" fill="none" xmlns="http://www.w3.org/2000/svg">
<path d="M10.1818 43V19.8559L3.05455 25.2941L0 21.2471L28 0L38.1818 7.71471V2.52941H45.8182V13.5324L56 21.2471L52.9455 25.2941L45.8182 19.8559V43H30.5455V27.8235H25.4545V43H10.1818ZM15.2727 37.9412H20.3636V22.7647H35.6364V37.9412H40.7273V15.9985L28 6.38677L15.2727 15.9985V37.9412ZM22.9091 17.7691H33.0909C33.0909 16.4201 32.5818 15.3131 31.5636 14.448C30.5455 13.5829 29.3576 13.1513 28 13.1529C26.6424 13.1546 25.4545 13.5872 24.4364 14.4505C23.4182 15.3139 22.9091 16.4201 22.9091 17.7691Z" fill="#FFB02B"/>
</svg>
