<svg width="46" height="46" viewBox="0 0 46 46" fill="none" xmlns="http://www.w3.org/2000/svg">
<path d="M25.6617 3.81592C22.1037 3.81592 19.1031 6.37763 19.1031 9.65576C19.1031 11.3116 19.8693 12.7841 21.0856 13.8365L21.8468 12.3388C21.1392 11.6019 20.7202 10.6617 20.7202 9.65576C20.7202 7.37643 22.8683 5.43311 25.6616 5.43311C28.4548 5.43311 30.603 7.37643 30.603 9.65576C30.603 11.2193 29.592 12.6247 28.0554 13.3532L27.3832 15.2899C27.553 15.2488 27.7212 15.2014 27.8875 15.1479L28.7103 16.5866C27.7825 17.2391 26.8846 18.048 25.922 19.0548L33.2308 35.172C37.7468 35.3803 42.1042 32.9857 44.3494 29.0617L34.6615 14.2522C32.8497 14.614 31.3921 15.0656 30.0907 15.7434L29.3639 14.4726C31.076 13.4291 32.2203 11.6794 32.2203 9.65585C32.2203 6.37772 29.2197 3.81601 25.6617 3.81601V3.81592ZM14.6409 4.35022C14.4019 4.35291 14.1509 4.39245 13.9085 4.47133C13.3542 4.65138 12.8852 5.02243 12.6812 5.42277L12.6554 5.47398L6.82413 13.7663C6.63232 14.1663 6.61013 14.7498 6.78307 15.2909C6.96007 15.8441 7.32618 16.3066 7.69966 16.4968L20.6086 23.0698C20.9744 23.2562 21.56 23.2859 22.1043 23.1082C22.6384 22.9339 23.0922 22.5794 23.3085 22.1655L25.5869 15.4937L25.6004 15.4941L26.1688 13.8562C26.1611 13.8569 26.1531 13.8571 26.1455 13.8578L26.5862 12.5672L26.6122 12.5162C26.8162 12.1159 26.8404 11.5171 26.6616 10.9635C26.4828 10.4099 26.1136 9.94335 25.7242 9.74507L22.8422 8.27765C22.2544 9.01239 22.074 10.0627 22.8111 11.0511L23.0007 11.3685L23.925 11.8536L23.1832 13.3103L23.1701 13.304L22.4408 14.7389L22.4529 14.7447L21.8866 15.8566L12.7594 11.2092L14.431 7.92645L14.7978 7.2059L17.5698 8.61753C17.7096 7.73616 18.012 6.88821 18.4983 6.06561L15.4622 4.51984C15.2363 4.40484 14.9482 4.34689 14.6409 4.35022ZM34.2204 16.1539L36.384 20.0908L29.9275 23.6388L28.1532 20.4107L27.7638 19.7021L34.2204 16.1539ZM33.5819 18.35L29.9602 20.3404L30.5659 21.4428L34.1877 19.4524L33.5819 18.35ZM10.2869 19.629L8.41185 23.312L14.6567 26.4918L16.532 22.8089L10.2869 19.629ZM36.9897 21.1932L39.1532 25.1299L32.6967 28.6778L30.9227 25.4498L30.5334 24.7412L36.9899 21.193L36.9897 21.1932ZM36.3513 23.3892L32.7293 25.3796L33.3352 26.482L36.9571 24.4916L36.3513 23.3892ZM8.959 25.4053H8.95882L1.65039 39.7584L2.2005 41.4501L9.14219 27.8175L10.5831 28.5513L3.6416 42.1838L5.65185 41.5302L6.81695 41.1513L6.1893 39.2146L8.12058 38.5884L7.49203 36.6561L9.42547 36.0273L8.94301 34.5445L12.6419 27.2805L8.959 25.4053Z" fill="#FFB02B"/>
</svg>
