<svg width="56" height="56" viewBox="0 0 56 56" fill="none" xmlns="http://www.w3.org/2000/svg">
<path d="M35.9734 1.95654H35.7765C34.8797 1.98607 33.7422 2.28248 32.2984 2.89607L6.51983 13.8248C4.20327 14.7983 3.0428 15.7608 2.61077 16.8326C2.17873 17.8936 2.34717 19.392 3.32936 21.7108L8.79264 34.5951C9.77373 36.9139 10.7308 38.0733 11.8015 38.4998C12.8625 38.9373 14.3609 38.7733 16.6797 37.7889L42.4594 26.8623C43.9359 26.2389 44.9422 25.6264 45.5875 24.9811C46.0797 25.5826 46.539 26.2498 46.9219 26.9717C47.3375 27.7373 47.6656 28.5467 47.8953 29.3561C47.6219 29.3233 47.3375 29.3123 47.0531 29.3123C45.5109 29.3451 43.9797 29.9358 42.7656 31.0842C40.5125 33.2279 40.1187 36.5967 41.6609 39.1561L36.1703 44.3733L33.764 43.7279L33.8515 46.5826L30.8547 46.4951L30.5703 49.7108L27.9781 49.2295L28.4812 51.6904L26.6219 54.042L33.4906 52.8498L44.964 41.9123C47.1734 42.7326 49.7437 42.2842 51.5812 40.5342C54.1734 38.0733 54.3047 33.9826 51.8547 31.3576C51.3187 30.7889 50.7172 30.3404 50.0609 30.0123C49.8312 28.6451 49.3281 27.2889 48.6609 26.042C48.0703 24.9483 47.3594 23.9311 46.5609 23.0889C46.6812 22.0936 46.4078 20.7811 45.6422 18.9764L40.1844 6.08873C39.2109 3.77326 38.2484 2.61279 37.1765 2.17967C36.8265 2.03748 36.4328 1.96092 35.9734 1.95654ZM34.2672 7.53029L35.0328 9.34373L20.5297 15.4873L19.764 13.6717L34.2672 7.53029ZM35.8969 11.7139L36.6625 13.5295L28.6015 16.942L27.8359 15.1264L35.8969 11.7139ZM15.1484 13.7264L22.75 31.6529L12.8734 35.8311L5.6667 18.8123L5.2828 17.9045L15.1484 13.7264ZM37.6797 15.5858L38.4453 17.4014L28.7765 21.492L28.0109 19.6764L37.6797 15.5858ZM14.0984 16.3076L7.86405 18.9545L13.9234 33.2498L20.1687 30.6029L14.0984 16.3076ZM42.0656 19.042C43.4984 19.042 44.6797 20.1686 44.789 21.5686C43.8156 20.9123 42.7437 20.5186 41.6609 20.5951C41.475 20.6061 41.289 20.6279 41.1031 20.6717L41.5406 22.5967C42.1969 22.4436 43.1375 22.7279 44.1437 23.5264C44.1437 23.5264 44.1547 23.5264 44.1547 23.5373C43.6515 24.1279 42.8969 24.5108 42.0656 24.5108C40.5672 24.5108 39.3312 23.2748 39.3312 21.7764C39.3312 20.2779 40.5672 19.042 42.0656 19.042ZM47.939 32.1779C48.0265 32.1779 48.114 32.1779 48.2015 32.1889C48.1031 33.1623 47.7531 33.9936 47.0969 34.6498L48.475 36.0498C49.3172 35.2076 49.8203 34.1795 50.05 33.0748C51.1109 34.2233 51.0562 36.0389 49.9297 37.1108C48.7922 38.1936 46.9875 38.1389 45.9265 37.0014C44.8547 35.8529 44.9203 34.0264 46.0469 32.9545C46.5828 32.4514 47.2609 32.1998 47.939 32.1779Z" fill="#FFB02B"/>
</svg>
