<svg width="46" height="46" viewBox="0 0 46 46" fill="none" xmlns="http://www.w3.org/2000/svg">
<path d="M21.4035 30.1467L35.0068 43.75C36.1735 44.8794 37.7373 45.5049 39.361 45.4918C40.9847 45.4786 42.5382 44.8277 43.6864 43.6795C44.8345 42.5314 45.4854 40.9779 45.4986 39.3542C45.5118 37.7305 44.8862 36.1667 43.7568 35L30.0438 21.287M21.4035 30.1467L27.2275 23.0767C27.9672 22.1807 28.9542 21.616 30.0462 21.2893M21.4035 30.1467L10.5418 43.337C10.0154 43.9787 9.36046 44.503 8.61915 44.8763C7.87784 45.2496 7.06658 45.4635 6.2376 45.5043C5.40862 45.5451 4.58028 45.4119 3.80589 45.1132C3.03151 44.8145 2.32824 44.357 1.74135 43.7701C1.15446 43.1833 0.696955 42.48 0.398283 41.7056C0.0996103 40.9312 -0.0336129 40.1029 0.00718852 39.2739C0.0479899 38.4449 0.261912 37.6337 0.635185 36.8923C1.00846 36.151 1.53281 35.4961 2.1745 34.9697L18.1275 21.833M30.0462 21.2893C31.3295 20.9067 32.7598 20.8507 34.1132 20.9627C34.4087 20.9891 34.7074 21.0023 35.0092 21.0023C36.764 21.0026 38.4909 20.5631 40.0321 19.7239C41.5733 18.8848 42.8796 17.6727 43.8316 16.1985C44.7836 14.7244 45.3509 13.0351 45.4817 11.2851C45.6126 9.53518 45.3027 7.78034 44.5805 6.181L36.9365 13.825C35.6571 13.5303 34.4864 12.8817 33.5581 11.9534C32.6298 11.0251 31.9812 9.85436 31.6865 8.575L39.3305 0.931C37.6619 0.177247 35.8251 -0.127065 34.0026 0.0482616C32.18 0.223588 30.435 0.872457 28.9406 1.93048C27.4463 2.9885 26.2546 4.4189 25.4838 6.07972C24.713 7.74055 24.3898 9.57407 24.5465 11.3983C24.7588 13.909 24.3808 16.681 22.4372 18.2817L22.1992 18.48M18.1275 21.833L8.5445 12.25H5.25683L0.00682914 3.5L3.50683 0L12.2568 5.25V8.53767L22.1968 18.4777M18.1252 21.8307L22.1968 18.4777ZM37.6318 37.625L31.5068 31.5ZM6.11316 39.375H6.13183V39.3937H6.11316V39.375Z" fill="#FFB02B"/>
</svg>
