<svg width="28" height="28" viewBox="0 0 28 28" fill="none" xmlns="http://www.w3.org/2000/svg">
<path d="M7.20967 26.5419C7.093 26.5419 6.96467 26.5302 6.85967 26.5186L4.328 26.1686C3.11467 26.0052 2.018 24.9202 1.83134 23.6836L1.48134 21.1286C1.36467 20.3119 1.71467 19.2502 2.298 18.6552L7.41967 13.5336C6.59134 10.2202 7.54801 6.72024 9.98634 4.30524C13.7663 0.536903 19.9147 0.525236 23.7063 4.30524C25.538 6.1369 26.5413 8.57524 26.5413 11.1652C26.5413 13.7552 25.538 16.1936 23.7063 18.0252C21.2563 20.4519 17.768 21.4086 14.478 20.5686L9.34467 25.6902C8.85467 26.2036 7.97967 26.5419 7.20967 26.5419ZM16.8347 3.22024C14.793 3.22024 12.763 3.99024 11.2113 5.5419C9.11134 7.63024 8.353 10.6869 9.228 13.5336C9.32134 13.8486 9.23967 14.1752 9.00634 14.4086L3.523 19.8919C3.32467 20.0902 3.16134 20.6036 3.19634 20.8719L3.54634 23.4269C3.61634 23.8702 4.09467 24.3719 4.538 24.4302L7.08134 24.7802C7.36134 24.8269 7.87467 24.6636 8.073 24.4652L13.5797 18.9702C13.813 18.7369 14.1513 18.6669 14.4547 18.7602C17.2663 19.6469 20.3347 18.8886 22.4347 16.7886C23.928 15.2952 24.7563 13.2886 24.7563 11.1652C24.7563 9.03024 23.928 7.03524 22.4347 5.5419C20.918 4.0019 18.8763 3.22024 16.8347 3.22024Z" fill="white"/>
<path d="M10.7214 23.9631C10.4998 23.9631 10.2781 23.8815 10.1031 23.7065L7.41977 21.0231C7.08143 20.6848 7.08143 20.1248 7.41977 19.7865C7.7581 19.4481 8.3181 19.4481 8.65643 19.7865L11.3398 22.4698C11.6781 22.8081 11.6781 23.3681 11.3398 23.7065C11.1648 23.8815 10.9431 23.9631 10.7214 23.9631Z" fill="white"/>
<path d="M16.917 13.7085C15.4703 13.7085 14.292 12.5302 14.292 11.0835C14.292 9.63683 15.4703 8.4585 16.917 8.4585C18.3637 8.4585 19.542 9.63683 19.542 11.0835C19.542 12.5302 18.3637 13.7085 16.917 13.7085ZM16.917 10.2085C16.4387 10.2085 16.042 10.6052 16.042 11.0835C16.042 11.5618 16.4387 11.9585 16.917 11.9585C17.3953 11.9585 17.792 11.5618 17.792 11.0835C17.792 10.6052 17.3953 10.2085 16.917 10.2085Z" fill="white"/>
</svg>
