<svg width="28" height="28" viewBox="0 0 28 28" fill="none" xmlns="http://www.w3.org/2000/svg">
<path d="M13.9297 2.5783L11.1181 9.1233H8.30641C7.83974 9.1233 7.38474 9.1583 6.94141 9.25163L8.10807 6.45163L8.15474 6.34663L8.22474 6.15997C8.25974 6.0783 8.28307 6.0083 8.31807 5.94997C9.67141 2.81163 11.1881 1.83163 13.9297 2.5783Z" fill="white"/>
<path d="M21.8513 9.43827L21.828 9.42661C21.128 9.22827 20.4163 9.12327 19.693 9.12327H12.3896L15.0146 3.02161L15.0496 2.93994C15.213 2.99827 15.388 3.07994 15.563 3.13827L18.1413 4.22327C19.5763 4.81827 20.5796 5.43661 21.198 6.18327C21.303 6.32327 21.3963 6.45161 21.4896 6.60327C21.5946 6.76661 21.6763 6.92994 21.723 7.10494C21.7696 7.20994 21.8046 7.30327 21.828 7.40827C22.003 8.00327 22.0146 8.67994 21.8513 9.43827Z" fill="white"/>
<path d="M14.6064 20.6034H14.8981C15.2481 20.6034 15.5398 20.2884 15.5398 19.9034C15.5398 19.4134 15.3998 19.3434 15.0964 19.2268L14.6064 19.0518V20.6034Z" fill="white"/>
<path d="M21.3383 11.1069C20.8133 10.9552 20.2649 10.8735 19.6933 10.8735H8.30662C7.51328 10.8735 6.76661 11.0252 6.06661 11.3285C4.03661 12.2035 2.61328 14.2219 2.61328 16.5669V18.8419C2.61328 19.1219 2.63661 19.3902 2.67161 19.6702C2.92828 23.3802 4.91161 25.3635 8.62161 25.6085C8.88995 25.6435 9.15828 25.6669 9.44995 25.6669H18.5499C22.8666 25.6669 25.1416 23.6135 25.3633 19.5302C25.3749 19.3085 25.3866 19.0752 25.3866 18.8419V16.5669C25.3866 13.9885 23.6716 11.8185 21.3383 11.1069ZM15.4933 18.0835C16.0299 18.2702 16.7533 18.6669 16.7533 19.9035C16.7533 20.9652 15.9249 21.8169 14.8983 21.8169H14.6066V22.0735C14.6066 22.4119 14.3383 22.6802 13.9999 22.6802C13.6616 22.6802 13.3933 22.4119 13.3933 22.0735V21.8169H13.2883C12.1683 21.8169 11.2466 20.8719 11.2466 19.7052C11.2466 19.3669 11.5149 19.0985 11.8533 19.0985C12.1916 19.0985 12.4599 19.3669 12.4599 19.7052C12.4599 20.1952 12.8333 20.6035 13.2883 20.6035H13.3933V18.6319L12.5066 18.3169C11.9699 18.1302 11.2466 17.7335 11.2466 16.4969C11.2466 15.4352 12.0749 14.5835 13.1016 14.5835H13.3933V14.3269C13.3933 13.9885 13.6616 13.7202 13.9999 13.7202C14.3383 13.7202 14.6066 13.9885 14.6066 14.3269V14.5835H14.7116C15.8316 14.5835 16.7533 15.5285 16.7533 16.6952C16.7533 17.0335 16.4849 17.3019 16.1466 17.3019C15.8083 17.3019 15.5399 17.0335 15.5399 16.6952C15.5399 16.2052 15.1666 15.7969 14.7116 15.7969H14.6066V17.7685L15.4933 18.0835Z" fill="white"/>
<path d="M12.46 16.4969C12.46 16.9869 12.6 17.0569 12.9033 17.1735L13.3933 17.3485V15.7969H13.1016C12.74 15.7969 12.46 16.1119 12.46 16.4969Z" fill="white"/>
</svg>
