<svg width="46" height="46" viewBox="0 0 46 46" fill="none" xmlns="http://www.w3.org/2000/svg">
<path d="M21.8881 29.0758L33.0622 40.25C34.0206 41.1777 35.3051 41.6916 36.6389 41.6807C37.9727 41.6699 39.2487 41.1353 40.1919 40.1921C41.135 39.249 41.6696 37.9729 41.6805 36.6392C41.6913 35.3054 41.1775 34.0208 40.2497 33.0625L28.9855 21.7982M21.8881 29.0758L26.6721 23.2683C27.2797 22.5323 28.0904 22.0685 28.9874 21.8002C30.0416 21.4858 31.2165 21.4398 32.3282 21.5318C32.5709 21.5536 32.8163 21.5644 33.0642 21.5644C34.5056 21.5647 35.9242 21.2036 37.1902 20.5143C38.4561 19.825 39.5292 18.8294 40.3111 17.6184C41.0931 16.4075 41.5592 15.0199 41.6666 13.5824C41.7741 12.145 41.5196 10.7035 40.9263 9.38975L34.6473 15.6688C33.5964 15.4267 32.6348 14.8939 31.8722 14.1314C31.1097 13.3688 30.5769 12.4072 30.3348 11.3563L36.6138 5.07725C35.2432 4.4581 33.7344 4.20813 32.2373 4.35214C30.7402 4.49616 29.3068 5.02916 28.0793 5.89825C26.8518 6.76734 25.8729 7.94231 25.2397 9.30656C24.6066 10.6708 24.3412 12.1769 24.4698 13.6754C24.6443 15.7378 24.3337 18.0147 22.7372 19.3296L22.5417 19.4925M21.8881 29.0758L12.966 39.9107C12.5336 40.4378 11.9956 40.8686 11.3867 41.1752C10.7777 41.4818 10.1113 41.6575 9.43038 41.691C8.74943 41.7246 8.06901 41.6151 7.43291 41.3698C6.79681 41.1244 6.21912 40.7486 5.73703 40.2665C5.25495 39.7845 4.87914 39.2068 4.6338 38.5707C4.38846 37.9346 4.27903 37.2541 4.31255 36.5732C4.34606 35.8922 4.52178 35.2259 4.8284 34.6169C5.13502 34.008 5.56574 33.47 6.09283 33.0376L19.1971 22.2468L11.3253 14.375H8.62475L4.31225 7.1875L7.18725 4.3125L14.3748 8.625V11.3256L22.5398 19.4906L19.1952 22.2448M35.2185 35.2187L30.1872 30.1875M9.32817 36.6562H9.3435V36.6716H9.32817V36.6562Z" stroke="#FFB02B" stroke-width="3" stroke-linecap="round" stroke-linejoin="round"/>
</svg>
