<svg width="28" height="28" viewBox="0 0 28 28" fill="none" xmlns="http://www.w3.org/2000/svg">
<path d="M20.5566 11.2231H14.4316C13.9533 11.2231 13.5566 10.8265 13.5566 10.3481C13.5566 9.86981 13.9533 9.47314 14.4316 9.47314H20.5566C21.035 9.47314 21.4316 9.86981 21.4316 10.3481C21.4316 10.8265 21.0466 11.2231 20.5566 11.2231Z" fill="white"/>
<path d="M8.30665 12.1099C8.08499 12.1099 7.86332 12.0282 7.68832 11.8532L6.81332 10.9782C6.47499 10.6399 6.47499 10.0799 6.81332 9.74154C7.15165 9.40321 7.71165 9.40321 8.04999 9.74154L8.30665 9.99821L10.3133 7.99154C10.6517 7.65321 11.2117 7.65321 11.55 7.99154C11.8883 8.32988 11.8883 8.88988 11.55 9.22821L8.92499 11.8532C8.76165 12.0165 8.53999 12.1099 8.30665 12.1099Z" fill="white"/>
<path d="M20.5566 19.3901H14.4316C13.9533 19.3901 13.5566 18.9935 13.5566 18.5151C13.5566 18.0368 13.9533 17.6401 14.4316 17.6401H20.5566C21.035 17.6401 21.4316 18.0368 21.4316 18.5151C21.4316 18.9935 21.0466 19.3901 20.5566 19.3901Z" fill="white"/>
<path d="M8.30665 20.2769C8.08499 20.2769 7.86332 20.1952 7.68832 20.0202L6.81332 19.1452C6.47499 18.8069 6.47499 18.2469 6.81332 17.9085C7.15165 17.5702 7.71165 17.5702 8.04999 17.9085L8.30665 18.1652L10.3133 16.1585C10.6517 15.8202 11.2117 15.8202 11.55 16.1585C11.8883 16.4969 11.8883 17.0569 11.55 17.3952L8.92499 20.0202C8.76165 20.1835 8.53999 20.2769 8.30665 20.2769Z" fill="white"/>
<path d="M17.4997 26.5418H10.4997C4.16467 26.5418 1.45801 23.8352 1.45801 17.5002V10.5002C1.45801 4.16516 4.16467 1.4585 10.4997 1.4585H17.4997C23.8347 1.4585 26.5413 4.16516 26.5413 10.5002V17.5002C26.5413 23.8352 23.8347 26.5418 17.4997 26.5418ZM10.4997 3.2085C5.12134 3.2085 3.20801 5.12183 3.20801 10.5002V17.5002C3.20801 22.8785 5.12134 24.7918 10.4997 24.7918H17.4997C22.878 24.7918 24.7913 22.8785 24.7913 17.5002V10.5002C24.7913 5.12183 22.878 3.2085 17.4997 3.2085H10.4997Z" fill="white"/>
</svg>
