<svg width="28" height="28" viewBox="0 0 28 28" fill="none" xmlns="http://www.w3.org/2000/svg">
<path d="M15.1663 17.2084H2.33301C1.85467 17.2084 1.45801 16.8117 1.45801 16.3334V8.89008C1.45801 8.51674 1.69133 8.19005 2.02966 8.06172C2.37966 7.93338 2.76468 8.03842 2.99802 8.31842C3.70968 9.17009 4.81802 9.6484 5.91468 9.6134C6.84802 9.59007 7.71132 9.2401 8.36465 8.62177C8.66799 8.3651 8.91299 8.06174 9.09966 7.72341C9.46133 7.10508 9.63634 6.4284 9.62467 5.74006C9.60134 4.66673 9.1347 3.68673 8.34137 2.97507C8.06137 2.73007 7.96801 2.34505 8.09634 2.00671C8.22468 1.66838 8.55136 1.43506 8.91302 1.43506H17.4997C17.978 1.43506 18.3747 1.83173 18.3747 2.31006V13.9767C18.3747 15.7734 16.9397 17.2084 15.1663 17.2084ZM3.20801 15.4584H15.1663C15.9713 15.4584 16.6247 14.8051 16.6247 14.0001V3.20841H10.7213C11.1297 3.96675 11.3513 4.81843 11.3747 5.7051C11.398 6.7201 11.1413 7.72341 10.628 8.59841C10.348 9.10008 9.963 9.57843 9.543 9.92843C8.60967 10.8151 7.32632 11.3401 5.96132 11.3751C4.98132 11.4101 4.03635 11.1651 3.21969 10.7218V15.4584H3.20801Z" fill="white"/>
<path d="M22.1663 24.2085H20.9997C20.5213 24.2085 20.1247 23.8118 20.1247 23.3335C20.1247 22.5285 19.4713 21.8752 18.6663 21.8752C17.8613 21.8752 17.208 22.5285 17.208 23.3335C17.208 23.8118 16.8113 24.2085 16.333 24.2085H11.6663C11.188 24.2085 10.7913 23.8118 10.7913 23.3335C10.7913 22.5285 10.138 21.8752 9.33301 21.8752C8.52801 21.8752 7.87467 22.5285 7.87467 23.3335C7.87467 23.8118 7.47801 24.2085 6.99967 24.2085H5.83301C3.41801 24.2085 1.45801 22.2485 1.45801 19.8335V16.3335C1.45801 15.8552 1.85467 15.4585 2.33301 15.4585H15.1663C15.9713 15.4585 16.6247 14.8052 16.6247 14.0002V5.8335C16.6247 5.35516 17.0213 4.9585 17.4997 4.9585H19.6464C20.8014 4.9585 21.863 5.57685 22.4347 6.58018L24.4297 10.0685C24.5813 10.3368 24.5813 10.6752 24.4297 10.9435C24.278 11.2118 23.9863 11.3752 23.6713 11.3752H22.1663C22.003 11.3752 21.8747 11.5035 21.8747 11.6668V15.1668C21.8747 15.3302 22.003 15.4585 22.1663 15.4585H25.6663C26.1447 15.4585 26.5413 15.8552 26.5413 16.3335V19.8335C26.5413 22.2485 24.5813 24.2085 22.1663 24.2085ZM21.758 22.4585H22.1663C23.613 22.4585 24.7913 21.2802 24.7913 19.8335V17.2085H22.1663C21.0463 17.2085 20.1247 16.2868 20.1247 15.1668V11.6668C20.1247 10.5468 21.0347 9.62516 22.1663 9.62516L20.918 7.4435C20.6613 6.9885 20.1714 6.7085 19.6464 6.7085H18.3747V14.0002C18.3747 15.7735 16.9397 17.2085 15.1663 17.2085H3.20801V19.8335C3.20801 21.2802 4.38634 22.4585 5.83301 22.4585H6.24131C6.62631 21.1168 7.86301 20.1252 9.33301 20.1252C10.803 20.1252 12.0397 21.1168 12.4247 22.4585H15.5863C15.9713 21.1168 17.208 20.1252 18.678 20.1252C20.148 20.1252 21.373 21.1168 21.758 22.4585Z" fill="white"/>
<path d="M9.33333 26.5417C7.56 26.5417 6.125 25.1067 6.125 23.3333C6.125 21.56 7.56 20.125 9.33333 20.125C11.1067 20.125 12.5417 21.56 12.5417 23.3333C12.5417 25.1067 11.1067 26.5417 9.33333 26.5417ZM9.33333 21.875C8.52833 21.875 7.875 22.5283 7.875 23.3333C7.875 24.1383 8.52833 24.7917 9.33333 24.7917C10.1383 24.7917 10.7917 24.1383 10.7917 23.3333C10.7917 22.5283 10.1383 21.875 9.33333 21.875Z" fill="white"/>
<path d="M18.6663 26.5417C16.893 26.5417 15.458 25.1067 15.458 23.3333C15.458 21.56 16.893 20.125 18.6663 20.125C20.4397 20.125 21.8747 21.56 21.8747 23.3333C21.8747 25.1067 20.4397 26.5417 18.6663 26.5417ZM18.6663 21.875C17.8613 21.875 17.208 22.5283 17.208 23.3333C17.208 24.1383 17.8613 24.7917 18.6663 24.7917C19.4713 24.7917 20.1247 24.1383 20.1247 23.3333C20.1247 22.5283 19.4713 21.875 18.6663 21.875Z" fill="white"/>
<path d="M25.6667 17.2083H22.1667C21.0467 17.2083 20.125 16.2867 20.125 15.1667V11.6667C20.125 10.5467 21.0467 9.625 22.1667 9.625H23.6716C23.9866 9.625 24.2783 9.78834 24.43 10.0683L26.425 13.5683C26.495 13.6967 26.5417 13.8483 26.5417 14V16.3333C26.5417 16.8117 26.145 17.2083 25.6667 17.2083ZM22.1667 11.375C22.0033 11.375 21.875 11.5033 21.875 11.6667V15.1667C21.875 15.33 22.0033 15.4583 22.1667 15.4583H24.7917V14.2333L23.1583 11.375H22.1667Z" fill="white"/>
<path d="M5.82219 11.3748C4.21219 11.3748 2.69553 10.6748 1.66886 9.44981C1.50553 9.27481 1.33055 9.02981 1.17888 8.79648C0.630551 7.96814 0.327218 6.98815 0.303884 5.96149C0.257218 4.25815 0.980565 2.65981 2.28723 1.57481C3.2789 0.758142 4.46884 0.314837 5.72884 0.291504C7.10551 0.303171 8.48223 0.758173 9.5089 1.67984C10.6756 2.70651 11.3522 4.14152 11.3872 5.70485C11.4106 6.71985 11.1539 7.72316 10.6405 8.59816C10.3605 9.09983 9.97554 9.57818 9.55554 9.92818C8.62221 10.8148 7.33887 11.3398 5.97387 11.3748C5.91553 11.3748 5.86886 11.3748 5.82219 11.3748ZM5.82219 2.0415C5.79886 2.0415 5.77553 2.0415 5.7522 2.0415C4.90053 2.05317 4.08384 2.36818 3.39551 2.92818C2.50884 3.66318 2.01887 4.75985 2.04221 5.91485C2.06554 6.61485 2.26388 7.27986 2.63722 7.8282C2.74222 7.99153 2.84719 8.14314 2.97553 8.28314C3.72219 9.16981 4.83055 9.63649 5.91555 9.61316C6.84888 9.58983 7.71219 9.23985 8.36552 8.62152C8.66885 8.36485 8.91386 8.0615 9.10052 7.72316C9.46219 7.10483 9.63721 6.42815 9.62554 5.73982C9.60221 4.66648 9.13557 3.68649 8.34223 2.97482C7.64223 2.37982 6.75553 2.0415 5.82219 2.0415Z" fill="white"/>
<path d="M5.19169 7.87495C4.97002 7.87495 4.76 7.79326 4.585 7.62993L3.40665 6.50997C3.05665 6.17164 3.04503 5.62331 3.38337 5.27331C3.7217 4.92331 4.27003 4.91162 4.62003 5.24995L5.19169 5.79825L7.02336 4.02497C7.37336 3.68664 7.92169 3.69825 8.26003 4.04825C8.59836 4.39825 8.58667 4.94666 8.23667 5.28499L5.7983 7.64161C5.6233 7.79327 5.40169 7.87495 5.19169 7.87495Z" fill="white"/>
</svg>
