<svg width="12" height="14" viewBox="0 0 12 14" fill="none" xmlns="http://www.w3.org/2000/svg">
<path d="M11.6683 5.46667C10.5213 5.46875 9.4025 5.1105 8.47 4.4425V9.09917C8.46971 9.96172 8.20605 10.8036 7.71428 11.5122C7.22251 12.2209 6.52609 12.7625 5.71817 13.0645C4.91024 13.3666 4.02934 13.4148 3.19329 13.2026C2.35724 12.9904 1.60591 12.5281 1.0398 11.8773C0.473681 11.2265 0.119776 10.4184 0.0254194 9.56101C-0.068937 8.70364 0.100754 7.83789 0.511796 7.07958C0.922837 6.32127 1.55563 5.70655 2.32553 5.31764C3.09543 4.92873 3.96572 4.78419 4.82 4.90333V7.245C4.42971 7.12207 4.01055 7.12558 3.62237 7.25504C3.23419 7.3845 2.89684 7.63329 2.65847 7.96589C2.4201 8.29849 2.2929 8.6979 2.29503 9.10709C2.29716 9.51628 2.42852 9.91434 2.67034 10.2444C2.91217 10.5745 3.2521 10.8198 3.6416 10.9452C4.03111 11.0706 4.45028 11.0698 4.83927 10.9428C5.22827 10.8158 5.56719 10.5691 5.80767 10.238C6.04814 9.90696 6.17787 9.50836 6.17834 9.09917V0H8.47C8.46889 0.194444 8.48556 0.387222 8.52 0.578333C8.59975 1.00351 8.76532 1.40797 9.00659 1.76703C9.24787 2.12608 9.5598 2.43219 9.92334 2.66667C10.4408 3.00833 11.0483 3.19083 11.6683 3.19V5.46667Z" fill="#FFB02B"/>
</svg>
